<svg width="347" height="38" viewBox="0 0 347 38" fill="none" xmlns="http://www.w3.org/2000/svg">
<path fill-rule="evenodd" clip-rule="evenodd" d="M122.288 11.5401V30.1087H124.628V11.5401H130.701V9.69318H124.628V3.55354H131.099V1.65674H124.777C123.748 1.65674 123.068 1.95623 122.736 2.55522C122.437 3.15421 122.288 3.86967 122.288 4.7016V9.69318H119.003V11.5401H122.288ZM204.697 29.1104C206.755 30.2086 209.061 30.7577 211.617 30.7577C213.973 30.7577 216.03 30.3583 217.789 29.5597C219.581 28.761 221.041 27.613 222.17 26.1155C223.298 24.5847 224.061 22.7378 224.46 20.5748H222.02C221.722 22.3052 221.108 23.7694 220.179 24.9674C219.283 26.1654 218.105 27.0805 216.644 27.7128C215.184 28.3451 213.508 28.6612 211.617 28.6612C208.165 28.6612 205.428 27.613 203.403 25.5165C201.412 23.3868 200.417 20.2587 200.417 16.1323C200.417 12.1391 201.429 9.07755 203.453 6.94781C205.511 4.81807 208.298 3.7532 211.816 3.7532C213.541 3.7532 215.085 4.06934 216.445 4.7016C217.839 5.30059 219.001 6.21572 219.93 7.44697C220.892 8.64495 221.539 10.1258 221.871 11.8895H224.211C223.812 9.69318 223.033 7.8463 221.871 6.34882C220.743 4.81807 219.332 3.65337 217.64 2.85472C215.947 2.05607 214.006 1.65674 211.816 1.65674C209.161 1.65674 206.788 2.20581 204.697 3.30396C202.64 4.36883 201.03 5.98278 199.869 8.14579C198.707 10.3088 198.127 13.0043 198.127 16.2322C198.127 19.4268 198.707 22.1056 199.869 24.2686C201.064 26.3983 202.673 28.0123 204.697 29.1104ZM342.57 30.2584C341.541 30.2584 340.861 29.959 340.529 29.36C340.23 28.761 340.081 28.0455 340.081 27.2136V11.8395H336.746V9.99263C337.642 9.99263 338.322 9.95935 338.787 9.89279C339.251 9.82624 339.583 9.64321 339.782 9.34372C339.981 9.01095 340.097 8.49515 340.131 7.79633C340.197 7.06423 340.23 6.04928 340.23 4.75146H342.271V9.99263H347V11.8395H342.271V28.3117H347V30.2584H342.57ZM325.18 30.7577C323.289 30.7577 321.613 30.3583 320.153 29.5597C318.726 28.761 317.597 27.5963 316.768 26.0656C315.938 24.5348 315.523 22.7212 315.523 20.6247C315.59 18.495 316.021 16.6315 316.817 15.0342C317.647 13.4369 318.792 12.2056 320.252 11.3404C321.712 10.4419 323.405 9.99268 325.33 9.99268C326.989 9.99268 328.449 10.3088 329.71 10.9411C330.971 11.5401 332 12.372 332.796 13.4369C333.626 14.5017 334.157 15.7164 334.389 17.0807H332.249C331.917 15.5167 331.137 14.3021 329.909 13.4369C328.681 12.5384 327.171 12.0891 325.379 12.0891C323.853 12.0891 322.525 12.4552 321.397 13.1873C320.269 13.8861 319.389 14.8678 318.759 16.1323C318.128 17.3969 317.796 18.8611 317.763 20.5249C317.763 22.9874 318.427 24.9674 319.754 26.4649C321.115 27.9291 322.94 28.6612 325.23 28.6612C327.022 28.6612 328.549 28.2119 329.81 27.3135C331.104 26.415 331.917 25.1837 332.249 23.6197H334.389C334.157 24.9841 333.609 26.1987 332.747 27.2635C331.917 28.3284 330.855 29.177 329.561 29.8093C328.3 30.4415 326.84 30.7577 325.18 30.7577ZM297.637 29.2103C299.064 30.2419 300.856 30.7577 303.013 30.7577C304.573 30.7577 305.983 30.4582 307.244 29.8592C308.505 29.2602 309.551 28.4449 310.38 27.4133C311.21 26.3484 311.741 25.1338 311.973 23.7694H309.733C309.435 25.3002 308.655 26.5148 307.394 27.4133C306.166 28.3118 304.706 28.761 303.013 28.761C300.69 28.761 298.882 27.9956 297.587 26.4649C296.326 24.9341 295.696 22.8876 295.696 20.3252H312.023V19.6763C312.023 19.4434 312.007 19.2437 311.973 19.0774C311.874 17.2138 311.426 15.6165 310.629 14.2854C309.833 12.9211 308.771 11.8728 307.444 11.1407C306.149 10.3754 304.656 9.99268 302.963 9.99268C300.939 9.99268 299.214 10.4752 297.787 11.4402C296.393 12.372 295.331 13.6199 294.601 15.1839C293.871 16.7479 293.506 18.4284 293.506 20.2254C293.472 21.9558 293.804 23.6363 294.501 25.2669C295.198 26.8642 296.243 28.1787 297.637 29.2103ZM309.684 18.8278H295.845C295.978 17.896 296.21 17.0308 296.542 16.2322C296.907 15.4002 297.372 14.6681 297.936 14.0359C298.533 13.4036 299.247 12.9044 300.076 12.5384C300.906 12.1391 301.868 11.9394 302.963 11.9394C304.158 11.9394 305.17 12.1723 306 12.6382C306.863 13.1041 307.56 13.7031 308.091 14.4352C308.622 15.1673 309.003 15.9327 309.236 16.7313C309.501 17.4967 309.65 18.1955 309.684 18.8278ZM272.322 9.99268H274.214L274.612 15.3836H274.712C274.778 15.1506 274.944 14.7513 275.21 14.1856C275.475 13.6199 275.89 13.0209 276.454 12.3886C277.018 11.7231 277.765 11.1574 278.694 10.6915C279.623 10.2256 280.785 9.99268 282.179 9.99268C283.572 9.99268 284.717 10.1923 285.613 10.5917C286.542 10.991 287.289 11.5401 287.853 12.2389C288.451 12.9044 288.899 13.6864 289.197 14.5849C289.496 15.4501 289.695 16.3653 289.795 17.3303C289.894 18.2953 289.944 19.2604 289.944 20.2254V30.2585H287.704V20.2254C287.704 18.5616 287.521 17.1306 287.156 15.9327C286.791 14.7014 286.177 13.753 285.315 13.0875C284.452 12.4219 283.257 12.0891 281.731 12.0891C280.104 12.0891 278.76 12.4885 277.699 13.2871C276.67 14.0858 275.89 15.134 275.359 16.4318C274.861 17.7296 274.612 19.1439 274.612 20.6747V30.2585H272.322V9.99268ZM250.642 30.2585H252.931V20.6747C252.931 19.1439 253.18 17.7296 253.678 16.4318C254.209 15.134 254.989 14.0858 256.018 13.2871C257.08 12.4885 258.424 12.0891 260.05 12.0891C261.576 12.0891 262.771 12.4219 263.634 13.0875C264.497 13.753 265.111 14.7014 265.476 15.9327C265.841 17.1306 266.023 18.5616 266.023 20.2254V30.2585H268.263V20.2254C268.263 19.2604 268.213 18.2953 268.114 17.3303C268.014 16.3653 267.815 15.4501 267.516 14.5849C267.218 13.6864 266.77 12.9044 266.172 12.2389C265.608 11.5401 264.862 10.991 263.932 10.5917C263.036 10.1923 261.891 9.99268 260.498 9.99268C259.104 9.99268 257.942 10.2256 257.013 10.6915C256.084 11.1574 255.337 11.7231 254.773 12.3886C254.209 13.0209 253.794 13.6199 253.529 14.1856C253.263 14.7513 253.097 15.1506 253.031 15.3836H252.931L252.533 9.99268H250.642V30.2585ZM237.142 30.7577C235.051 30.7577 233.292 30.325 231.865 29.4598C230.471 28.5614 229.426 27.3301 228.729 25.7661C228.032 24.202 227.684 22.4217 227.684 20.4251C227.684 18.3952 228.032 16.5982 228.729 15.0342C229.426 13.4369 230.471 12.2056 231.865 11.3404C233.292 10.4419 235.051 9.99268 237.142 9.99268C240.195 9.99268 242.518 10.9577 244.111 12.8878C245.737 14.7846 246.55 17.297 246.55 20.4251C246.55 22.3552 246.218 24.1189 245.554 25.7162C244.891 27.2802 243.862 28.5114 242.468 29.4099C241.074 30.3084 239.299 30.7577 237.142 30.7577ZM237.142 28.7111C239 28.7111 240.444 28.2951 241.473 27.4632C242.501 26.6313 243.215 25.583 243.613 24.3185C244.044 23.0207 244.26 21.7063 244.26 20.3752C244.26 19.0108 244.044 17.6964 243.613 16.4318C243.215 15.134 242.501 14.0691 241.473 13.2372C240.444 12.4053 239 11.9893 237.142 11.9893C235.317 11.9893 233.873 12.4053 232.811 13.2372C231.749 14.0691 231.002 15.134 230.571 16.4318C230.173 17.6964 229.974 19.0108 229.974 20.3752C229.974 21.7063 230.173 23.0207 230.571 24.3185C231.002 25.583 231.749 26.6313 232.811 27.4632C233.873 28.2951 235.317 28.7111 237.142 28.7111ZM173.928 37.9452V35.7988H184.581V25.0669H184.481C184.415 25.2333 184.216 25.616 183.884 26.215C183.585 26.7807 183.121 27.3963 182.49 28.0619C181.893 28.7274 181.13 29.2931 180.2 29.759C179.271 30.2249 178.143 30.4578 176.815 30.4578C174.891 30.4578 173.248 29.992 171.887 29.0602C170.56 28.1284 169.548 26.8805 168.851 25.3165C168.154 23.7525 167.806 22.0054 167.806 20.0754C167.806 18.112 168.154 16.3483 168.851 14.7843C169.548 13.187 170.577 11.9391 171.937 11.0406C173.298 10.1421 174.94 9.69287 176.865 9.69287C178.226 9.69287 179.371 9.92581 180.3 10.3917C181.262 10.8576 182.026 11.4233 182.59 12.0888C183.187 12.7544 183.619 13.3866 183.884 13.9856C184.183 14.5513 184.365 14.9507 184.432 15.1836H184.531V9.69287H186.921V34.3014C186.921 35.0335 186.838 35.6657 186.672 36.1982C186.506 36.7639 186.207 37.1965 185.776 37.496C185.377 37.7955 184.78 37.9452 183.984 37.9452H173.928ZM177.114 28.3115C178.475 28.3115 179.703 27.9953 180.798 27.3631C181.926 26.7308 182.822 25.799 183.486 24.5678C184.149 23.3032 184.481 21.8058 184.481 20.0754C184.481 18.3449 184.166 16.8807 183.536 15.6828C182.905 14.4515 182.059 13.5197 180.997 12.8875C179.968 12.2219 178.773 11.8892 177.413 11.8892C175.754 11.8892 174.376 12.2885 173.281 13.0871C172.186 13.8525 171.373 14.8675 170.842 16.132C170.311 17.3633 170.046 18.6777 170.046 20.0754C170.046 21.4397 170.278 22.7708 170.742 24.0686C171.24 25.3332 172.004 26.3648 173.032 27.1634C174.094 27.9288 175.455 28.3115 177.114 28.3115ZM150.523 29.16C151.95 30.0252 153.709 30.4578 155.799 30.4578C157.956 30.4578 159.732 30.0086 161.126 29.1101C162.519 28.2116 163.548 26.9804 164.212 25.4164C164.876 23.819 165.207 22.0554 165.207 20.1253C165.207 16.9972 164.394 14.4848 162.768 12.588C161.175 10.6579 158.852 9.69287 155.799 9.69287C153.709 9.69287 151.95 10.1421 150.523 11.0406C149.129 11.9058 148.084 13.1371 147.387 14.7344C146.69 16.2984 146.341 18.0954 146.341 20.1253C146.341 22.1219 146.69 23.9022 147.387 25.4663C148.084 27.0303 149.129 28.2616 150.523 29.16ZM160.13 27.1634C159.101 27.9953 157.658 28.4113 155.799 28.4113C153.974 28.4113 152.53 27.9953 151.468 27.1634C150.407 26.3315 149.66 25.2832 149.228 24.0187C148.83 22.7209 148.631 21.4065 148.631 20.0754C148.631 18.711 148.83 17.3965 149.228 16.132C149.66 14.8342 150.407 13.7693 151.468 12.9374C152.53 12.1055 153.974 11.6895 155.799 11.6895C157.658 11.6895 159.101 12.1055 160.13 12.9374C161.159 13.7693 161.872 14.8342 162.27 16.132C162.702 17.3965 162.918 18.711 162.918 20.0754C162.918 21.4065 162.702 22.7209 162.27 24.0187C161.872 25.2832 161.159 26.3315 160.13 27.1634ZM133.779 29.9587V9.69287H135.72L136.024 14.79C136.127 14.3444 136.275 13.9098 136.467 13.4865C136.832 12.7544 137.33 12.1055 137.96 11.5398C138.624 10.974 139.404 10.5248 140.3 10.192C141.229 9.85926 142.308 9.69287 143.535 9.69287H144.631V12.2386H143.535C141.843 12.2386 140.482 12.4549 139.454 12.8875C138.458 13.2868 137.711 13.8525 137.214 14.5846C136.716 15.2834 136.384 16.1154 136.218 17.0804C136.085 18.0455 136.019 19.077 136.019 20.1752V29.9587H133.779ZM107.762 30.4578C106.434 30.4578 105.306 30.2249 104.377 29.759C103.448 29.2931 102.684 28.7274 102.087 28.0619C101.49 27.3963 101.025 26.7807 100.693 26.215C100.395 25.616 100.195 25.2333 100.096 25.0669H99.9963V37.9452H97.7065V9.69287H99.6478L100.046 15.1836H100.146C100.245 14.9507 100.428 14.5513 100.693 13.9856C100.959 13.3866 101.374 12.7544 101.938 12.0888C102.535 11.4233 103.298 10.8576 104.227 10.3917C105.19 9.92581 106.351 9.69287 107.712 9.69287C109.67 9.69287 111.313 10.1588 112.64 11.0905C114.001 12.0223 115.029 13.2702 115.726 14.8342C116.456 16.3982 116.821 18.1619 116.821 20.1253C116.821 22.0886 116.456 23.8523 115.726 25.4164C114.996 26.9804 113.951 28.2116 112.59 29.1101C111.263 30.0086 109.653 30.4578 107.762 30.4578ZM107.513 28.3115C109.172 28.3115 110.516 27.9288 111.545 27.1634C112.607 26.3648 113.37 25.3332 113.835 24.0686C114.333 22.7708 114.581 21.4397 114.581 20.0754C114.581 18.6777 114.316 17.3633 113.785 16.132C113.254 14.8675 112.424 13.8525 111.296 13.0871C110.201 12.2885 108.824 11.8892 107.164 11.8892C105.837 11.8892 104.642 12.2219 103.58 12.8875C102.518 13.5197 101.672 14.4515 101.042 15.6828C100.444 16.8807 100.146 18.3449 100.146 20.0754C100.146 21.8058 100.477 23.3032 101.141 24.5678C101.805 25.799 102.684 26.7308 103.779 27.3631C104.908 27.9953 106.152 28.3115 107.513 28.3115ZM79.1349 29.0107C80.3627 29.9425 81.9059 30.4084 83.7643 30.4084C84.7267 30.4084 85.5895 30.2753 86.3528 30.0091C87.116 29.7761 87.7963 29.4433 88.3937 29.0107C88.991 28.5449 89.4888 28.0457 89.887 27.5133C90.3185 26.9475 90.6669 26.3652 90.9324 25.7662H91.032L91.4302 29.9591H93.3218V9.69331H90.9822V14.1857H90.9324C90.7001 13.5535 90.3682 12.9711 89.9368 12.4387C89.5386 11.873 89.0408 11.3738 88.4435 10.9412C87.8461 10.5086 87.1658 10.1592 86.4025 9.89298C85.6393 9.62676 84.7598 9.49365 83.7643 9.49365C81.9722 9.49365 80.4457 9.95953 79.1847 10.8913C77.9568 11.7898 77.0276 13.021 76.3971 14.5851C75.7997 16.1491 75.501 17.9461 75.501 19.976C75.501 21.906 75.7997 23.6697 76.3971 25.267C76.9944 26.8311 77.907 28.079 79.1349 29.0107ZM88.1448 27.3136C87.2156 27.9791 86.0375 28.3119 84.6105 28.3119C83.084 28.3119 81.8063 27.9625 80.7776 27.2637C79.782 26.5649 79.0353 25.5832 78.5375 24.3186C78.0397 23.0541 77.7909 21.6066 77.7909 19.976C77.7909 18.3787 78.0232 16.9644 78.4878 15.7331C78.9855 14.5019 79.7322 13.5202 80.7278 12.7881C81.7565 12.056 83.0508 11.6899 84.6105 11.6899C85.9711 11.6899 87.116 12.0061 88.0452 12.6383C89.0076 13.2706 89.7377 14.2024 90.2355 15.4336C90.7333 16.6316 90.9822 18.1624 90.9822 20.0259C90.9822 21.723 90.7499 23.2039 90.2853 24.4684C89.8207 25.6997 89.1072 26.6481 88.1448 27.3136ZM63.439 30.4578C61.282 30.4578 59.4899 29.9421 58.063 28.9105C56.6692 27.8789 55.6238 26.5644 54.9269 24.9671C54.23 23.3365 53.8982 21.656 53.9313 19.9256C53.9313 18.1286 54.2964 16.4481 55.0265 14.8841C55.7566 13.3201 56.8185 12.0722 58.2123 11.1404C59.6393 10.1754 61.3649 9.69287 63.3893 9.69287C65.0817 9.69287 66.5751 10.0756 67.8693 10.8409C69.1968 11.573 70.2587 12.6213 71.0552 13.9856C71.8516 15.3167 72.2996 16.914 72.3992 18.7775C72.4324 18.9439 72.449 19.1436 72.449 19.3765V20.0254H56.1216C56.1216 22.5878 56.7521 24.6343 58.0132 26.1651C59.3074 27.6958 61.116 28.4612 63.439 28.4612C65.1315 28.4612 66.5917 28.012 67.8196 27.1135C69.0806 26.215 69.8605 25.0004 70.1591 23.4696H72.3992C72.1669 24.834 71.6359 26.0486 70.8063 27.1135C69.9766 28.1451 68.9313 28.9604 67.6702 29.5594C66.4092 30.1584 64.9988 30.4578 63.439 30.4578ZM56.2709 18.528H70.1094C70.0762 17.8957 69.9268 17.1969 69.6614 16.4315C69.4291 15.6329 69.0474 14.8675 68.5165 14.1354C67.9855 13.4033 67.2886 12.8043 66.4258 12.3384C65.5961 11.8725 64.5839 11.6396 63.3893 11.6396C62.2941 11.6396 61.3318 11.8393 60.5021 12.2386C59.6725 12.6046 58.959 13.1038 58.3616 13.7361C57.7975 14.3683 57.3329 15.1004 56.9678 15.9323C56.636 16.731 56.4037 17.5962 56.2709 18.528ZM32.6848 1.85645V27.9624V29.3601V29.959H51.3517V27.9624H34.9248V1.85645H32.6848Z" fill="#041E0A"/>
<path fill-rule="evenodd" clip-rule="evenodd" d="M20.7961 0.723145C20.7961 11.2702 10.5093 21.5766 0 21.5766L5.17841e-07 15.6369C7.25289 15.6369 14.8999 8.02955 14.8999 0.723145L20.7961 0.723145ZM9.4416e-05 37.1433C9.4416e-05 26.5962 10.287 16.2898 20.7962 16.2898V22.2295C13.5433 22.2295 5.89632 29.8369 5.89632 37.1433H9.4416e-05Z" fill="url(#paint0_linear_31_288)"/>
<defs>
<linearGradient id="paint0_linear_31_288" x1="-0.170419" y1="0.140422" x2="31.8214" y2="19.4609" gradientUnits="userSpaceOnUse">
<stop stop-color="#F2E221"/>
<stop offset="0.315" stop-color="#F2E221"/>
<stop offset="0.675" stop-color="#9BEF6B"/>
<stop offset="1" stop-color="#61F19B"/>
</linearGradient>
</defs>
</svg>
